HIERARCHY
ROOT Hips
{
  OFFSET -436.359 92.1209 710.182
  CHANNELS 6 Xposition Yposition Zposition Zrotation Xrotation Yrotation
  JOINT Spine
  {
    OFFSET 1.95101e-05 8 0
    CHANNELS 6 Xposition Yposition Zposition Zrotation Xrotation Yrotation
    JOINT Spine1
    {
      OFFSET -3.07925e-05 8 1.72276e-05
      CHANNELS 6 Xposition Yposition Zposition Zrotation Xrotation Yrotation
      JOINT Spine2
      {
        OFFSET 1.30681e-05 8 0
        CHANNELS 6 Xposition Yposition Zposition Zrotation Xrotation Yrotation
        JOINT Spine3
        {
          OFFSET 0 8 0
          CHANNELS 6 Xposition Yposition Zposition Zrotation Xrotation Yrotation
          JOINT Neck
          {
            OFFSET 0.00029598 17.0001 0.000159002
            CHANNELS 6 Xposition Yposition Zposition Zrotation Xrotation Yrotation
            JOINT Head
            {
              OFFSET 4.62559e-05 10.8 -1.64755e-05
              CHANNELS 6 Xposition Yposition Zposition Zrotation Xrotation Yrotation
              End Site
              {
                OFFSET 0 20.25 0
              }
            }
          }
          JOINT LeftShoulder
          {
            OFFSET 5.00032 16.9999 1.32675e-05
            CHANNELS 6 Xposition Yposition Zposition Zrotation Xrotation Yrotation
            JOINT LeftShoulder2
            {
              OFFSET 6.45 0 0
              CHANNELS 6 Xposition Yposition Zposition Zrotation Xrotation Yrotation
              JOINT LeftArm
              {
                OFFSET 6.45003 0.000323796 -0.000653872
                CHANNELS 6 Xposition Yposition Zposition Zrotation Xrotation Yrotation
                JOINT LeftForeArm
                {
                  OFFSET -2.91052e-05 -32.4 -1.99998
                  CHANNELS 6 Xposition Yposition Zposition Zrotation Xrotation Yrotation
                  JOINT LeftHand
                  {
                    OFFSET -1.81171e-05 -25.65 1.99998
                    CHANNELS 6 Xposition Yposition Zposition Zrotation Xrotation Yrotation
                    JOINT LeftHandThumb1
                    {
                      OFFSET -0.499957 -1.50001 2.65002
                      CHANNELS 6 Xposition Yposition Zposition Zrotation Xrotation Yrotation
                      JOINT LeftHandThumb2
                      {
                        OFFSET 0 -3.8 3.7
                        CHANNELS 6 Xposition Yposition Zposition Zrotation Xrotation Yrotation
                        JOINT LeftHandThumb3
                        {
                          OFFSET 0 -2.99999 2.69999
                          CHANNELS 6 Xposition Yposition Zposition Zrotation Xrotation Yrotation
                          End Site
                          {
                            OFFSET 0 -2.3 1.80001
                          }
                        }
                      }
                    }
                    JOINT LeftHandIndex
                    {
                      OFFSET 1.87193e-05 -1.90001 1.60001
                      CHANNELS 6 Xposition Yposition Zposition Zrotation Xrotation Yrotation
                      JOINT LeftHandIndex1
                      {
                        OFFSET 0 -8.3 1.90001
                        CHANNELS 6 Xposition Yposition Zposition Zrotation Xrotation Yrotation
                        JOINT LeftHandIndex2
                        {
                          OFFSET 7.02344e-05 -4.5 0
                          CHANNELS 6 Xposition Yposition Zposition Zrotation Xrotation Yrotation
                          JOINT LeftHandIndex3
                          {
                            OFFSET 0 -3.39999 -2.01198e-05
                            CHANNELS 6 Xposition Yposition Zposition Zrotation Xrotation Yrotation
                            End Site
                            {
                              OFFSET -2.99232e-05 -2.60001 0
                            }
                          }
                        }
                      }
                    }
                    JOINT LeftHandMiddle
                    {
                      OFFSET -0.249983 -2.20001 0.400007
                      CHANNELS 6 Xposition Yposition Zposition Zrotation Xrotation Yrotation
                      JOINT LeftHandMiddle1
                      {
                        OFFSET 3.73681e-05 -8.29999 1
                        CHANNELS 6 Xposition Yposition Zposition Zrotation Xrotation Yrotation
                        JOINT LeftHandMiddle2
                        {
                          OFFSET 0 -4.65 0
                          CHANNELS 6 Xposition Yposition Zposition Zrotation Xrotation Yrotation
                          JOINT LeftHandMiddle3
                          {
                            OFFSET -2.06209e-05 -3.30002 1.42468e-05
                            CHANNELS 6 Xposition Yposition Zposition Zrotation Xrotation Yrotation
                            End Site
                            {
                              OFFSET -4.9998e-05 -2.7 0
                            }
                          }
                        }
                      }
                    }
                    JOINT LeftHandRing
                    {
                      OFFSET -0.499981 -2.15001 -0.799989
                      CHANNELS 6 Xposition Yposition Zposition Zrotation Xrotation Yrotation
                      JOINT LeftHandRing1
                      {
                        OFFSET -2.15242e-05 -7.75 -0.200004
                        CHANNELS 6 Xposition Yposition Zposition Zrotation Xrotation Yrotation
                        JOINT LeftHandRing2
                        {
                          OFFSET 2.71508e-05 -3.79999 0
                          CHANNELS 6 Xposition Yposition Zposition Zrotation Xrotation Yrotation
                          JOINT LeftHandRing3
                          {
                            OFFSET 0 -3.40001 1.00971e-05
                            CHANNELS 6 Xposition Yposition Zposition Zrotation Xrotation Yrotation
                            End Site
                            {
                              OFFSET 1.25861e-05 -2.59999 0
                            }
                          }
                        }
                      }
                    }
                    JOINT LeftHandPinky
                    {
                      OFFSET -0.749989 -1.75001 -1.84999
                      CHANNELS 6 Xposition Yposition Zposition Zrotation Xrotation Yrotation
                      JOINT LeftHandPinky1
                      {
                        OFFSET 2.85765e-05 -7.15 -1
                        CHANNELS 6 Xposition Yposition Zposition Zrotation Xrotation Yrotation
                        JOINT LeftHandPinky2
                        {
                          OFFSET -1.07829e-05 -3.00001 0
                          CHANNELS 6 Xposition Yposition Zposition Zrotation Xrotation Yrotation
                          JOINT LeftHandPinky3
                          {
                            OFFSET 0 -2.34999 -1.24126e-05
                            CHANNELS 6 Xposition Yposition Zposition Zrotation Xrotation Yrotation
                            End Site
                            {
                              OFFSET 3.38775e-05 -2.1 0
                            }
                          }
                        }
                      }
                    }
                  }
                }
              }
            }
          }
          JOINT RightShoulder
          {
            OFFSET -4.99968 17.0001 0.000276588
            CHANNELS 6 Xposition Yposition Zposition Zrotation Xrotation Yrotation
            JOINT RightShoulder2
            {
              OFFSET -6.45 0 0
              CHANNELS 6 Xposition Yposition Zposition Zrotation Xrotation Yrotation
              JOINT RightArm
              {
                OFFSET -6.45 -0.000201442 -8.29556e-05
                CHANNELS 6 Xposition Yposition Zposition Zrotation Xrotation Yrotation
                JOINT RightForeArm
                {
                  OFFSET 1.01917e-05 -32.4 -2
                  CHANNELS 6 Xposition Yposition Zposition Zrotation Xrotation Yrotation
                  JOINT RightHand
                  {
                    OFFSET 0 -25.65 1.99997
                    CHANNELS 6 Xposition Yposition Zposition Zrotation Xrotation Yrotation
                    JOINT RightHandThumb1
                    {
                      OFFSET 0.499975 -1.50004 2.65
                      CHANNELS 6 Xposition Yposition Zposition Zrotation Xrotation Yrotation
                      JOINT RightHandThumb2
                      {
                        OFFSET 0 -3.8 3.7
                        CHANNELS 6 Xposition Yposition Zposition Zrotation Xrotation Yrotation
                        JOINT RightHandThumb3
                        {
                          OFFSET 1.32637e-05 -2.99999 2.70001
                          CHANNELS 6 Xposition Yposition Zposition Zrotation Xrotation Yrotation
                          End Site
                          {
                            OFFSET 1.60962e-05 -2.29999 1.79999
                          }
                        }
                      }
                    }
                    JOINT RightHandIndex
                    {
                      OFFSET 0 -1.9 1.60001
                      CHANNELS 6 Xposition Yposition Zposition Zrotation Xrotation Yrotation
                      JOINT RightHandIndex1
                      {
                        OFFSET 0 -8.30001 1.9
                        CHANNELS 6 Xposition Yposition Zposition Zrotation Xrotation Yrotation
                        JOINT RightHandIndex2
                        {
                          OFFSET -2.87653e-05 -4.5 -1.39499e-05
                          CHANNELS 6 Xposition Yposition Zposition Zrotation Xrotation Yrotation
                          JOINT RightHandIndex3
                          {
                            OFFSET 8.73678e-05 -3.4 2.25689e-05
                            CHANNELS 6 Xposition Yposition Zposition Zrotation Xrotation Yrotation
                            End Site
                            {
                              OFFSET -2.34135e-05 -2.59999 -2.53555e-05
                            }
                          }
                        }
                      }
                    }
                    JOINT RightHandMiddle
                    {
                      OFFSET 0.249988 -2.20001 0.40001
                      CHANNELS 6 Xposition Yposition Zposition Zrotation Xrotation Yrotation
                      JOINT RightHandMiddle1
                      {
                        OFFSET -1.08487e-05 -8.30001 0.999991
                        CHANNELS 6 Xposition Yposition Zposition Zrotation Xrotation Yrotation
                        JOINT RightHandMiddle2
                        {
                          OFFSET -2.43534e-05 -4.65 2.50327e-05
                          CHANNELS 6 Xposition Yposition Zposition Zrotation Xrotation Yrotation
                          JOINT RightHandMiddle3
                          {
                            OFFSET 1.76007e-05 -3.29997 -2.4401e-05
                            CHANNELS 6 Xposition Yposition Zposition Zrotation Xrotation Yrotation
                            End Site
                            {
                              OFFSET 1.42536e-05 -2.69999 0
                            }
                          }
                        }
                      }
                    }
                    JOINT RightHandRing
                    {
                      OFFSET 0.499975 -2.15003 -0.800008
                      CHANNELS 6 Xposition Yposition Zposition Zrotation Xrotation Yrotation
                      JOINT RightHandRing1
                      {
                        OFFSET 3.25971e-05 -7.74998 -0.19997
                        CHANNELS 6 Xposition Yposition Zposition Zrotation Xrotation Yrotation
                        JOINT RightHandRing2
                        {
                          OFFSET -2.06579e-05 -3.79999 -1.18557e-05
                          CHANNELS 6 Xposition Yposition Zposition Zrotation Xrotation Yrotation
                          JOINT RightHandRing3
                          {
                            OFFSET 0 -3.40002 0
                            CHANNELS 6 Xposition Yposition Zposition Zrotation Xrotation Yrotation
                            End Site
                            {
                              OFFSET 0 -2.59997 1.49736e-05
                            }
                          }
                        }
                      }
                    }
                    JOINT RightHandPinky
                    {
                      OFFSET 0.750003 -1.75001 -1.84997
                      CHANNELS 6 Xposition Yposition Zposition Zrotation Xrotation Yrotation
                      JOINT RightHandPinky1
                      {
                        OFFSET 0 -7.14999 -1.00001
                        CHANNELS 6 Xposition Yposition Zposition Zrotation Xrotation Yrotation
                        JOINT RightHandPinky2
                        {
                          OFFSET 0 -3.00001 1.28753e-05
                          CHANNELS 6 Xposition Yposition Zposition Zrotation Xrotation Yrotation
                          JOINT RightHandPinky3
                          {
                            OFFSET -1.66669e-05 -2.34997 -1.1969e-05
                            CHANNELS 6 Xposition Yposition Zposition Zrotation Xrotation Yrotation
                            End Site
                            {
                              OFFSET 0 -2.09996 -2.9356e-05
                            }
                          }
                        }
                      }
                    }
                  }
                }
              }
            }
          }
        }
      }
    }
  }
  JOINT LeftUpLeg
  {
    OFFSET 8.00001 0 -2.32818e-05
    CHANNELS 6 Xposition Yposition Zposition Zrotation Xrotation Yrotation
    JOINT LeftLeg
    {
      OFFSET -1.36954e-05 -45.0001 -0.999991
      CHANNELS 6 Xposition Yposition Zposition Zrotation Xrotation Yrotation
      JOINT LeftFoot
      {
        OFFSET -1.06737e-05 -41 -2.00003
        CHANNELS 6 Xposition Yposition Zposition Zrotation Xrotation Yrotation
        JOINT LeftToeBase
        {
          OFFSET -2.20364e-05 -7.5 12.5
          CHANNELS 6 Xposition Yposition Zposition Zrotation Xrotation Yrotation
          JOINT LeftFootToe
          {
            OFFSET 0 0 4
            CHANNELS 6 Xposition Yposition Zposition Zrotation Xrotation Yrotation
            End Site
            {
              OFFSET 0 0 0
            }
          }
        }
      }
    }
  }
  JOINT RightUpLeg
  {
    OFFSET -8.00001 0 2.32818e-05
    CHANNELS 6 Xposition Yposition Zposition Zrotation Xrotation Yrotation
    JOINT RightLeg
    {
      OFFSET 0 -45 -1.00002
      CHANNELS 6 Xposition Yposition Zposition Zrotation Xrotation Yrotation
      JOINT RightFoot
      {
        OFFSET -1.61273e-05 -41 -1.99999
        CHANNELS 6 Xposition Yposition Zposition Zrotation Xrotation Yrotation
        JOINT RightToeBase
        {
          OFFSET 0 -7.5 12.5
          CHANNELS 6 Xposition Yposition Zposition Zrotation Xrotation Yrotation
          JOINT RightFootToe
          {
            OFFSET 0 0 4
            CHANNELS 6 Xposition Yposition Zposition Zrotation Xrotation Yrotation
            End Site
            {
              OFFSET 0 0 0
            }
          }
        }
      }
    }
  }
}
MOTION
Frames:	3
Frame Time:	0.0111111
-410.312 92.9122 706.864 1.22702 3.67102 -111.456 -1.13687e-13 8 0 5.02804 4.33273 4.81931 1.13687e-13 8 -5.68434e-14 0.420682 3.69099 2.0754 -1.13687e-13 8 2.84217e-14 0.227254 1.84424 1.03214 -1.13687e-13 8 2.84217e-14 0.227104 1.84295 1.03319 -1.13687e-13 17 -2.84217e-14 -1.8361 4.81878 9.40157 0 10.8 -5.68434e-14 -6.73691 2.67179 21.8402 5 17 0 2.90963 -4.83845 5.23629 6.45 1.42109e-14 -1.13687e-13 -1.82943 0.437054 -3.06974 6.45 -1.42109e-14 0 34.0017 -33.7461 14.7857 -1.13687e-13 -32.4 -2 -42.4099 -30.6796 7.06593 1.13687e-13 -25.65 2 33.9784 21.0241 -24.4732 -0.5 -1.5 2.65 -0.123642 -32.1812 0.163533 -1.13687e-13 -3.8 3.7 -0.0640312 12.2837 0.0754855 0 -3 2.7 -0.132466 49.1845 0.0995025 0 -1.9 1.6 -1.59028e-15 2.22639e-14 -6.36111e-15 0 -8.3 1.9 -1.2644 -1.05744 0.0500406 0 -4.5 2.84217e-14 -5.95057 0.113625 0.0989092 0 -3.4 2.84217e-14 -4.7388 0.0783676 0.0862501 -0.25 -2.2 0.4 -1.59028e-15 2.22639e-14 -6.36111e-15 0 -8.3 1 -5.21832 -2.65519 0.103476 0 -4.65 2.84217e-14 -14.2343 0.0998791 0.102578 0 -3.3 2.84217e-14 -11.5093 0.0526087 0.0842829 -0.5 -2.15 -0.8 -1.59028e-15 2.22639e-14 -6.36111e-15 -1.13687e-13 -7.75 -0.2 -15.4574 -7.44017 -0.345809 0 -3.8 0 -0.000283771 -0.259037 -3.44392e-06 0 -3.4 0 -5.8775e-07 -0.257161 1.32961e-05 -0.75 -1.75 -1.85 -1.59028e-15 2.22639e-14 -6.36111e-15 0 -7.15 -1 -15.9891 -14.8877 -1.33533 0 -3 -2.84217e-14 -20.1124 0.0413471 -0.0470961 -1.13687e-13 -2.35 2.84217e-14 -15.8913 0.0343825 -0.02155 -5 17 -2.84217e-14 0.340425 -0.0785886 2.7286 -6.45 -2.84217e-14 5.68434e-14 -1.33389 0.685455 -4.74011 -6.45 0 0 -9.03429 -21.6033 9.92834 1.13687e-13 -32.4 -2 11.7695 -69.4113 18.3231 0 -25.65 2 -57.3414 2.1961 64.314 0.5 -1.5 2.65 27.1763 -41.0974 6.47017 -2.84217e-14 -3.8 3.7 0.240244 13.0325 -0.108209 -2.84217e-14 -3 2.7 0.0369045 68.4483 -0.0223619 2.13163e-14 -1.9 1.6 3.74065e-07 -2.18838e-07 6.47733e-07 -1.42109e-14 -8.3 1.9 7.69268 -12.0715 0.725911 0 -4.5 -1.13687e-13 3.06469 0.142478 -0.134872 2.84217e-14 -3.4 1.13687e-13 7.16632e-05 0.146516 -0.136789 0.25 -2.2 0.4 3.74065e-07 -2.18838e-07 6.47733e-07 2.84217e-14 -8.3 1 9.63634 -9.75993 0.299388 0 -4.65 0 68.1987 0.0557536 -0.0107544 5.68434e-14 -3.3 0 48.1076 0.0312393 -0.0469604 0.5 -2.15 -0.8 3.74065e-07 -2.18838e-07 6.47733e-07 -3.55271e-14 -7.75 -0.2 18.0713 -5.05396 -0.655489 -4.26326e-14 -3.8 0 74.2429 0.147164 0.000133882 0 -3.4 0 57.4483 0.106636 -0.160749 0.75 -1.75 -1.85 3.74065e-07 -2.18838e-07 6.47733e-07 -2.13163e-14 -7.15 -1 42.8551 -22.8414 5.35232 -2.84217e-14 -3 -1.13687e-13 39.6009 0.0205397 -0.0824207 5.68434e-14 -2.35 0 27.9256 -0.0112179 -0.0508281 8 2.84217e-14 0 16.7025 -27.2954 23.3264 1.13687e-13 -45 -1 -0.438982 1.02597 -4.15659 0 -41 -2 -4.29658 15.5075 -36.4302 0 -7.5 12.5 2.63992e-07 3.24511e-06 -6.19784e-07 0 0 4 -2.39494 -1.09349 11.5463 -8 0 0 3.55246 -4.46924 -6.38985 0 -45 -1 -0.000881623 4.02265 -0.216324 0 -41 -2 -0.209967 0.651322 -21.2564 1.13687e-13 -7.5 12.5 1.52293e-12 5.72587e-06 8.85148e-12 0 0 4 1.04414 1.23172 32.5244 
-410.149 92.8639 706.805 1.32595 3.97776 -111.395 1.13687e-13 8 -1.13687e-13 5.36401 4.2676 4.80562 0 8 2.84217e-14 0.435973 3.70558 2.07704 0 8 2.84217e-14 0.235028 1.85147 1.03214 -1.13687e-13 8 2.84217e-14 0.234794 1.85013 1.03272 -1.13687e-13 17 0 -1.83572 4.96572 9.3668 -1.13687e-13 10.8 -5.68434e-14 -6.81408 2.96579 21.7676 5 17 5.68434e-14 3.05909 -4.80508 5.31614 6.45 1.42109e-14 0 -1.84396 0.386327 -3.14365 6.45 -2.84217e-14 0 34.1298 -34.2747 15.0719 0 -32.4 -2 -42.0903 -30.2721 8.14259 0 -25.65 2 34.9907 21.4946 -24.6809 -0.5 -1.5 2.65 0.299647 -32.2009 0.947511 0 -3.8 3.7 -0.0490739 13.0263 0.0521661 1.13687e-13 -3 2.7 -0.0907708 49.795 0.0675561 -1.13687e-13 -1.9 1.6 1.11319e-14 3.10104e-14 3.18055e-15 0 -8.3 1.9 -1.30949 -2.06603 0.0381168 1.13687e-13 -4.5 0 -3.74672 0.0721562 0.0622736 1.13687e-13 -3.4 0 -2.98367 0.0498945 0.0545165 -0.25 -2.2 0.4 1.11319e-14 3.10104e-14 3.18055e-15 1.13687e-13 -8.3 1 -4.72888 -3.60089 0.0682868 0 -4.65 -5.68434e-14 -11.4914 0.0736853 0.05765 0 -3.3 2.84217e-14 -9.52134 0.0424238 0.0482707 -0.5 -2.15 -0.8 1.11319e-14 3.10104e-14 3.18055e-15 0 -7.75 -0.2 -13.5165 -8.0119 -0.336488 1.13687e-13 -3.8 0 -0.000283771 -0.259037 -3.44392e-06 0 -3.4 0 -5.8775e-07 -0.257161 1.32961e-05 -0.75 -1.75 -1.85 1.11319e-14 3.10104e-14 3.18055e-15 0 -7.15 -1 -14.1337 -14.784 -1.1496 0 -3 5.68434e-14 -19.2449 0.025235 -0.0277207 0 -2.35 -5.68434e-14 -15.3327 0.0208253 -0.0125467 -5 17 0 0.410679 -0.0984216 2.74047 -6.45 2.84217e-14 0 -1.35504 0.71912 -4.77319 -6.45 5.68434e-14 0 -8.79725 -22.0297 10.1823 0 -32.4 -2 10.8748 -68.7595 17.6055 -1.13687e-13 -25.65 2 -57.7116 1.53045 64.6535 0.5 -1.5 2.65 27.031 -41.3086 6.04558 0 -3.8 3.7 0.240902 13.4915 -0.111245 0 -3 2.7 0.037228 68.4533 -0.0223669 3.55271e-14 -1.9 1.6 3.74065e-07 -2.18838e-07 6.47733e-07 -1.42109e-14 -8.3 1.9 8.11934 -12.3114 0.785028 -1.42109e-14 -4.5 1.13687e-13 3.0647 0.144828 -0.136766 2.84217e-14 -3.4 0 8.24122e-05 0.14892 -0.138717 0.25 -2.2 0.4 3.74065e-07 -2.18838e-07 6.47733e-07 2.13163e-14 -8.3 1 10.7976 -10.727 0.43044 0 -4.65 0 69.1608 0.0465349 -0.0105055 5.68434e-14 -3.3 1.13687e-13 49.0276 0.0247422 -0.0436527 0.5 -2.15 -0.8 3.74065e-07 -2.18838e-07 6.47733e-07 -2.84217e-14 -7.75 -0.2 20.0901 -7.20109 -0.309635 0 -3.8 0 75.6629 0.119071 -0.00617573 0 -3.4 0 59.4791 0.0768444 -0.145574 0.75 -1.75 -1.85 3.74065e-07 -2.18838e-07 6.47733e-07 -3.55271e-14 -7.15 -1 42.9757 -23.0795 5.42931 -2.84217e-14 -3 0 42.7892 0.0393507 -0.0841066 -5.68434e-14 -2.35 0 29.9986 -0.00467677 -0.0614357 8 0 -5.68434e-14 17.0711 -27.3775 23.425 0 -45 -1 -0.439238 1.02484 -4.13928 -1.13687e-13 -41 -2 -4.20526 15.4588 -36.452 0 -7.5 12.5 2.63992e-07 3.24511e-06 -6.19784e-07 0 0 4 -2.50477 -1.09224 11.3501 -8 0 0 3.93342 -4.55458 -6.41449 1.13687e-13 -45 -1 -0.000994777 4.07868 -0.24228 0 -41 -2 -0.283439 0.687442 -21.2271 0 -7.5 12.5 1.52293e-12 5.72587e-06 8.85784e-12 0 -3.46945e-18 4 1.10655 1.37692 32.5401 
-409.985 92.8157 706.745 1.42421 4.28352 -111.33 0 8 5.68434e-14 5.69994 4.20246 4.79194 0 8 5.68434e-14 0.451263 3.72017 2.07869 -1.13687e-13 8 2.84217e-14 0.242801 1.8587 1.03214 1.13687e-13 8 -2.84217e-14 0.242667 1.85793 1.03211 0 17 0 -1.83517 5.1127 9.33208 1.13687e-13 10.8 5.68434e-14 -6.8905 3.26008 21.6956 5 17 2.84217e-14 3.20846 -4.77171 5.39599 6.45 4.26326e-14 -5.68434e-14 -1.86126 0.344271 -3.20345 6.45 -5.68434e-14 0 34.2644 -34.8018 15.363 -1.13687e-13 -32.4 -2 -41.7874 -29.8572 9.21068 1.13687e-13 -25.65 2 36.0068 21.9637 -24.8917 -0.5 -1.5 2.65 0.723563 -32.2158 1.73179 0 -3.8 3.7 -0.0334944 13.7689 0.0287153 1.13687e-13 -3 2.7 -0.0480075 50.4056 0.0348017 0 -1.9 1.6 3.18055e-15 3.02153e-14 3.18055e-15 0 -8.3 1.9 -1.35501 -3.07463 0.0261897 0 -4.5 2.84217e-14 -1.54293 0.0306875 0.025638 1.13687e-13 -3.4 -2.84217e-14 -1.22857 0.0214214 0.022783 -0.25 -2.2 0.4 3.18055e-15 3.02153e-14 3.18055e-15 -1.13687e-13 -8.3 1 -4.24062 -4.54658 0.0330432 0 -4.65 2.84217e-14 -8.74864 0.0474914 0.0127217 0 -3.3 0 -7.53339 0.032239 0.0122585 -0.5 -2.15 -0.8 3.18055e-15 3.02153e-14 3.18055e-15 0 -7.75 -0.2 -11.5754 -8.58364 -0.327175 -1.13687e-13 -3.8 2.84217e-14 -0.000283771 -0.259037 -3.44392e-06 0 -3.4 5.68434e-14 -5.8775e-07 -0.257161 1.32961e-05 -0.75 -1.75 -1.85 3.18055e-15 3.02153e-14 3.18055e-15 0 -7.15 -1 -12.2791 -14.6802 -0.964052 0 -3 2.84217e-14 -18.3773 0.00912293 -0.00834535 0 -2.35 -5.68434e-14 -14.774 0.00726814 -0.00354332 -5 17 -2.84217e-14 0.480941 -0.118254 2.75235 -6.45 0 5.68434e-14 -1.37276 0.749623 -4.83686 -6.45 5.68434e-14 -2.84217e-14 -8.55606 -22.4552 10.4383 0 -32.4 -2 10.024 -68.1043 16.9312 0 -25.65 2 -58.0741 0.881841 65.0088 0.5 -1.5 2.65 26.8817 -41.5184 5.61832 0 -3.8 3.7 0.24161 13.9505 -0.1143 0 -3 2.7 0.0375514 68.4584 -0.0223718 2.84217e-14 -1.9 1.6 3.74065e-07 -2.18838e-07 6.47733e-07 -7.10543e-15 -8.3 1.9 8.54652 -12.5514 0.844266 -1.42109e-14 -4.5 0 3.06471 0.147178 -0.13866 2.84217e-14 -3.4 0 9.33231e-05 0.151323 -0.140645 0.25 -2.2 0.4 3.74065e-07 -2.18838e-07 6.47733e-07 2.84217e-14 -8.3 1 11.9633 -11.694 0.562454 1.42109e-14 -4.65 0 70.1229 0.0373162 -0.0102565 5.68434e-14 -3.3 -1.13687e-13 49.9476 0.018245 -0.040345 0.5 -2.15 -0.8 3.74065e-07 -2.18838e-07 6.47733e-07 -3.55271e-14 -7.75 -0.2 22.1351 -9.3481 0.0390741 -5.68434e-14 -3.8 -1.13687e-13 77.0829 0.0909786 -0.0124853 0 -3.4 0 61.51 0.0470526 -0.1304 0.75 -1.75 -1.85 3.74065e-07 -2.18838e-07 6.47733e-07 -4.26326e-14 -7.15 -1 43.097 -23.3175 5.50666 2.84217e-14 -3 0 45.9774 0.0581616 -0.0857926 -5.68434e-14 -2.35 -1.13687e-13 32.0716 0.00186434 -0.0720433 8 0 5.68434e-14 17.4401 -27.4594 23.5238 0 -45 -1 -0.439494 1.0237 -4.12197 0 -41 -2 -4.11397 15.4101 -36.4739 -1.13687e-13 -7.5 12.5 2.63992e-07 3.24511e-06 -6.19784e-07 1.13687e-13 0 4 -2.59303 -1.105 11.2597 -8 0 8.52651e-14 4.31431 -4.63991 -6.43915 0 -45 -1 -0.00105703 4.1347 -0.268241 0 -41 -2 -0.356947 0.723577 -21.1978 0 -7.5 12.5 1.52293e-12 5.72587e-06 8.85784e-12 1.13687e-13 0 4 1.16779 1.50482 32.5325 
